<?xml version="1.0" encoding="UTF-8" ?>
<!DOCTYPE svg PUBLIC "-//W3C//DTD SVG 1.1//EN" "http://www.w3.org/Graphics/SVG/1.1/DTD/svg11.dtd">
<svg width="500pt" height="500pt" viewBox="0 0 500 500" version="1.1" xmlns="http://www.w3.org/2000/svg">
<g id="#000000ff">
</g>
<g id="#fefefeff">
<path fill="#fefefe" opacity="1.00" d=" M 157.91 146.92 C 159.29 146.95 160.67 146.95 162.05 146.92 C 162.29 148.60 162.55 150.30 162.51 152.01 C 162.44 191.34 162.54 230.68 162.46 270.01 C 163.02 272.60 159.79 273.39 158.07 272.17 C 157.35 270.92 157.53 269.44 157.47 268.08 C 157.51 229.03 157.48 189.99 157.48 150.94 C 157.49 149.59 157.71 148.25 157.91 146.92 Z" />
<path fill="#fefefe" opacity="1.00" d=" M 188.26 150.36 C 192.83 150.47 198.28 149.52 201.84 153.12 C 205.76 157.33 205.79 163.93 204.07 169.11 C 202.66 173.19 198.43 175.19 194.37 175.52 C 194.42 181.01 194.38 186.51 194.39 192.00 C 192.35 192.00 190.30 192.00 188.26 192.00 C 188.27 178.12 188.26 164.24 188.26 150.36 M 194.43 156.40 C 194.38 160.70 194.38 165.01 194.41 169.31 C 196.01 168.76 198.48 168.64 198.66 166.49 C 199.44 162.70 199.56 156.74 194.43 156.40 Z" />
<path fill="#fefefe" opacity="1.00" d=" M 208.27 150.35 C 210.31 150.35 212.35 150.35 214.39 150.38 C 214.40 164.25 214.39 178.13 214.39 192.00 C 212.35 192.00 210.30 192.00 208.26 192.00 C 208.27 178.12 208.25 164.23 208.27 150.35 Z" />
<path fill="#fefefe" opacity="1.00" d=" M 218.76 150.37 C 220.81 150.35 222.85 150.35 224.89 150.36 C 224.90 162.34 224.90 174.33 224.89 186.32 C 227.59 186.31 230.28 186.34 232.98 186.33 C 232.99 188.22 233.00 190.10 233.02 191.99 C 228.26 192.01 223.51 192.00 218.76 192.00 C 218.76 178.12 218.76 164.24 218.76 150.37 Z" />
<path fill="#fefefe" opacity="1.00" d=" M 240.12 150.35 C 242.61 150.35 245.10 150.36 247.60 150.37 C 249.67 164.25 251.78 178.12 253.88 192.00 C 251.89 192.00 249.90 192.00 247.92 192.00 C 247.54 189.17 247.16 186.35 246.81 183.51 C 244.84 183.51 242.87 183.50 240.91 183.49 C 240.52 186.33 240.14 189.16 239.78 192.00 C 237.79 192.00 235.80 192.00 233.82 192.00 C 235.90 178.11 238.00 164.23 240.12 150.35 M 243.85 162.37 C 242.95 167.23 242.44 172.15 241.75 177.04 C 243.14 177.03 244.53 177.03 245.93 177.04 C 245.23 172.15 244.76 167.22 243.85 162.37 Z" />
<path fill="#fefefe" opacity="1.00" d=" M 256.68 157.04 C 257.05 151.57 263.41 148.28 268.21 150.65 C 272.19 152.36 272.66 157.17 272.98 160.93 C 271.01 161.12 269.04 161.31 267.07 161.50 C 266.64 159.49 266.94 156.92 265.06 155.56 C 262.20 155.21 262.11 159.04 262.60 160.96 C 265.04 168.08 271.78 173.23 272.84 180.93 C 272.99 184.74 272.45 189.55 268.64 191.51 C 265.09 193.12 260.01 192.82 257.56 189.45 C 255.62 186.84 255.76 183.43 255.48 180.35 C 257.45 180.14 259.43 179.96 261.42 179.77 C 261.80 182.21 261.36 185.72 264.09 186.90 C 267.47 186.59 267.22 182.02 266.26 179.67 C 262.87 172.27 255.08 165.99 256.68 157.04 Z" />
<path fill="#fefefe" opacity="1.00" d=" M 101.12 166.29 C 102.86 165.76 103.47 166.25 102.96 167.78 C 101.22 168.30 100.61 167.81 101.12 166.29 Z" />
<path fill="#fefefe" opacity="1.00" d=" M 97.48 172.14 C 98.06 172.26 99.21 172.50 99.79 172.61 C 95.02 182.86 89.54 192.80 83.13 202.11 C 82.50 203.32 81.24 203.75 80.02 204.10 C 80.44 202.62 81.06 201.21 81.93 199.93 C 87.89 191.13 93.04 181.80 97.48 172.14 Z" />
<path fill="#fefefe" opacity="1.00" d=" M 188.25 223.35 C 190.30 223.35 192.35 223.35 194.40 223.36 C 194.38 237.24 194.39 251.12 194.40 265.00 C 192.35 265.00 190.30 265.01 188.26 265.00 C 188.26 251.12 188.27 237.24 188.25 223.35 Z" />
<path fill="#fefefe" opacity="1.00" d=" M 198.76 223.35 C 200.57 223.35 202.38 223.36 204.20 223.36 C 206.45 231.37 208.53 239.43 210.85 247.42 C 211.18 239.40 210.90 231.38 211.00 223.36 C 212.87 223.36 214.74 223.35 216.61 223.35 C 216.61 237.23 216.62 251.11 216.61 265.00 C 214.79 264.99 212.97 265.00 211.16 265.00 C 208.94 256.91 206.78 248.81 204.45 240.75 C 204.27 248.84 204.44 256.93 204.38 265.02 C 202.51 265.01 200.64 265.00 198.77 265.00 C 198.76 251.11 198.77 237.23 198.76 223.35 Z" />
<path fill="#fefefe" opacity="1.00" d=" M 221.28 223.34 C 226.13 223.36 230.99 223.36 235.85 223.35 C 235.84 225.45 235.84 227.55 235.83 229.65 C 233.02 229.65 230.21 229.65 227.40 229.63 C 227.39 233.28 227.39 236.93 227.39 240.58 C 229.27 240.57 231.15 240.57 233.04 240.57 C 233.05 242.67 233.04 244.78 233.05 246.88 C 231.16 246.88 229.27 246.87 227.39 246.87 C 227.40 252.92 227.39 258.96 227.40 265.01 C 225.35 265.01 223.30 265.01 221.26 265.02 C 221.27 251.12 221.23 237.23 221.28 223.34 Z" />
<path fill="#fefefe" opacity="1.00" d=" M 242.54 223.64 C 245.75 222.27 250.05 222.88 252.18 225.84 C 254.83 229.32 254.08 233.93 254.20 238.01 C 254.05 244.69 254.45 251.38 254.00 258.05 C 253.68 262.45 249.50 266.13 245.03 265.34 C 240.80 265.17 238.04 261.02 237.96 257.09 C 237.75 249.05 237.93 241.01 237.88 232.98 C 237.78 229.41 239.03 225.23 242.54 223.64 M 244.65 229.60 C 244.53 229.90 244.29 230.51 244.17 230.81 C 243.74 237.83 244.13 244.89 243.98 251.93 C 244.08 254.15 243.67 256.52 244.51 258.64 C 245.70 260.43 248.16 258.97 247.94 257.10 C 248.12 248.42 248.16 239.70 247.93 231.01 C 248.20 229.22 245.56 228.17 244.65 229.60 Z" />
<path fill="#fefefe" opacity="1.00" d=" M 258.27 223.34 C 263.22 223.49 269.66 222.36 272.87 227.18 C 275.78 232.62 275.70 240.23 271.48 245.00 C 272.69 251.68 274.05 258.34 275.32 265.01 C 273.27 265.00 271.23 265.00 269.19 264.99 C 268.11 259.32 267.30 253.60 266.02 247.97 C 265.65 247.72 264.90 247.23 264.52 246.98 C 264.25 252.98 264.45 258.99 264.40 265.00 C 262.35 265.00 260.30 265.00 258.26 265.02 C 258.28 251.12 258.25 237.23 258.27 223.34 M 264.47 229.12 C 264.35 233.45 264.34 237.78 264.49 242.12 C 265.79 241.36 267.67 241.09 268.25 239.50 C 269.63 235.75 269.33 229.87 264.47 229.12 Z" />
<path fill="#fefefe" opacity="1.00" d=" M 278.76 223.36 C 281.26 223.35 283.76 223.36 286.26 223.36 C 287.53 230.51 289.12 237.60 290.20 244.79 C 291.32 237.61 292.87 230.50 294.16 223.35 C 296.66 223.35 299.15 223.35 301.65 223.34 C 301.67 237.23 301.66 251.11 301.66 265.00 C 299.76 265.00 297.87 265.00 295.99 265.00 C 295.82 255.53 296.34 246.04 295.66 236.58 C 294.40 246.06 292.91 255.50 291.54 264.97 C 290.88 264.99 289.57 265.02 288.91 265.04 C 287.42 255.55 286.20 246.02 284.55 236.55 C 284.28 246.04 284.53 255.53 284.44 265.03 C 282.54 265.01 280.65 265.00 278.76 264.99 C 278.77 251.11 278.76 237.23 278.76 223.36 Z" />
<path fill="#fefefe" opacity="1.00" d=" M 310.86 223.34 C 313.35 223.34 315.84 223.36 318.34 223.35 C 320.42 237.24 322.53 251.12 324.63 265.01 C 322.64 265.00 320.65 265.00 318.67 265.00 C 318.30 262.16 317.90 259.32 317.53 256.48 C 315.57 256.50 313.61 256.50 311.66 256.51 C 311.28 259.34 310.88 262.17 310.52 265.00 C 308.53 265.00 306.54 265.00 304.55 265.01 C 306.66 251.12 308.75 237.23 310.86 223.34 M 314.59 235.35 C 313.66 240.21 313.22 245.14 312.50 250.04 C 313.54 250.04 315.63 250.04 316.68 250.04 C 315.95 245.14 315.53 240.20 314.59 235.35 Z" />
<path fill="#fefefe" opacity="1.00" d=" M 325.35 223.36 C 331.25 223.36 337.15 223.34 343.04 223.36 C 343.04 225.45 343.04 227.54 343.05 229.63 C 341.11 229.64 339.18 229.65 337.26 229.65 C 337.28 241.44 337.25 253.22 337.27 265.01 C 335.22 265.01 333.17 265.00 331.13 265.00 C 331.14 253.22 331.13 241.43 331.13 229.65 C 329.20 229.65 327.28 229.65 325.36 229.64 C 325.35 227.55 325.35 225.45 325.35 223.36 Z" />
<path fill="#fefefe" opacity="1.00" d=" M 345.26 223.34 C 347.31 223.35 349.35 223.35 351.40 223.38 C 351.39 237.25 351.38 251.12 351.40 264.99 C 349.35 265.00 347.30 265.01 345.25 265.02 C 345.28 251.13 345.25 237.23 345.26 223.34 Z" />
<path fill="#fefefe" opacity="1.00" d=" M 358.61 224.72 C 362.04 221.82 368.19 222.48 370.42 226.57 C 372.43 229.89 371.86 233.93 371.96 237.64 C 370.05 237.64 368.14 237.64 366.23 237.63 C 366.16 235.14 366.49 232.58 365.83 230.15 C 365.46 228.47 362.51 228.50 362.16 230.17 C 361.28 234.02 361.92 238.05 361.74 241.98 C 361.92 247.29 361.34 252.67 362.06 257.94 C 362.43 259.94 365.66 260.04 365.94 257.93 C 366.41 255.55 366.18 253.11 366.22 250.71 C 368.13 250.71 370.04 250.72 371.95 250.72 C 371.86 254.57 372.48 258.86 370.17 262.22 C 367.44 266.39 360.44 266.51 357.55 262.48 C 355.72 260.06 355.57 256.90 355.60 254.00 C 355.65 246.99 355.59 239.98 355.62 232.97 C 355.60 230.00 356.32 226.79 358.61 224.72 Z" />
<path fill="#fefefe" opacity="1.00" d=" M 380.12 223.35 C 382.60 223.35 385.08 223.36 387.57 223.35 C 389.69 237.24 391.78 251.12 393.87 265.01 C 391.88 265.00 389.91 265.00 387.93 265.00 C 387.54 262.17 387.15 259.34 386.78 256.51 C 384.81 256.50 382.85 256.50 380.90 256.50 C 380.52 259.32 380.15 262.15 379.81 264.98 C 377.81 264.99 375.81 265.00 373.82 265.01 C 375.90 251.12 378.00 237.23 380.12 223.35 M 383.85 235.29 C 382.94 240.17 382.44 245.13 381.75 250.05 C 383.14 250.03 384.54 250.03 385.94 250.03 C 385.22 245.12 384.75 240.17 383.85 235.29 Z" />
<path fill="#fefefe" opacity="1.00" d=" M 398.18 226.12 C 400.74 222.27 406.83 221.89 410.14 224.95 C 412.47 227.30 412.62 230.82 412.99 233.91 C 411.01 234.12 409.04 234.32 407.08 234.51 C 406.58 232.46 407.04 228.96 404.27 228.47 C 401.87 229.44 402.21 232.76 402.83 234.79 C 405.18 240.28 409.62 244.59 411.82 250.17 C 413.34 253.54 413.08 257.50 411.87 260.92 C 409.43 267.15 398.76 266.97 396.55 260.63 C 395.67 258.31 395.70 255.78 395.46 253.34 C 397.44 253.14 399.42 252.95 401.41 252.76 C 401.80 255.24 401.39 258.69 404.11 259.95 C 407.16 259.60 407.22 255.63 406.50 253.37 C 404.32 247.69 399.57 243.41 397.47 237.67 C 396.05 233.99 395.95 229.50 398.18 226.12 Z" />
<path fill="#fefefe" opacity="1.00" d=" M 115.26 238.26 C 118.71 234.37 121.59 229.97 125.44 226.44 C 125.51 227.60 126.05 228.97 124.98 229.87 C 119.98 236.32 114.51 242.38 109.34 248.68 C 108.75 248.66 107.56 248.60 106.97 248.58 C 109.07 244.65 112.48 241.69 115.26 238.26 Z" />
</g>
<g id="#01c2cbff">
<path fill="#01c2cb" opacity="1.00" d=" M 101.42 158.48 C 103.80 155.71 107.76 156.31 111.01 156.29 C 118.02 156.64 125.04 156.42 132.06 156.39 C 134.77 156.32 136.41 159.53 135.56 161.91 C 129.59 174.29 119.92 184.31 113.03 196.14 C 109.96 201.53 106.84 206.89 102.93 211.72 C 109.29 212.25 115.68 212.13 122.05 211.80 C 129.11 211.45 136.15 212.07 143.18 212.61 C 144.23 214.31 145.39 216.81 143.50 218.37 C 135.13 226.03 126.58 233.52 118.68 241.68 C 108.57 251.91 98.78 262.44 88.84 272.83 C 86.52 275.03 84.57 277.92 81.34 278.84 C 82.84 271.53 87.59 265.47 91.17 259.08 C 97.56 248.34 104.69 238.08 111.47 227.59 C 95.44 227.38 79.41 227.66 63.38 227.46 C 60.16 226.94 60.13 222.97 62.03 220.92 C 67.83 212.76 73.27 204.33 79.30 196.32 C 84.94 188.44 89.78 180.00 93.98 171.27 C 96.19 166.87 98.27 162.31 101.42 158.48 M 101.12 166.29 C 100.61 167.81 101.22 168.30 102.96 167.78 C 103.47 166.25 102.86 165.76 101.12 166.29 M 97.48 172.14 C 93.04 181.80 87.89 191.13 81.93 199.93 C 81.06 201.21 80.44 202.62 80.02 204.10 C 81.24 203.75 82.50 203.32 83.13 202.11 C 89.54 192.80 95.02 182.86 99.79 172.61 C 99.21 172.50 98.06 172.26 97.48 172.14 M 115.26 238.26 C 112.48 241.69 109.07 244.65 106.97 248.58 C 107.56 248.60 108.75 248.66 109.34 248.68 C 114.51 242.38 119.98 236.32 124.98 229.87 C 126.05 228.97 125.51 227.60 125.44 226.44 C 121.59 229.97 118.71 234.37 115.26 238.26 Z" />
</g>
</svg>
